<svg width="23" height="23" viewBox="0 0 23 23" fill="none" xmlns="http://www.w3.org/2000/svg">
<g id="mail_svgrepo.com">
<path id="Vector" fill-rule="evenodd" clip-rule="evenodd" d="M19.1654 3.8335C20.7532 3.8335 22.0404 5.12068 22.0404 6.7085V16.2918C22.0404 17.8797 20.7532 19.1668 19.1654 19.1668H3.83203C2.24422 19.1668 0.957031 17.8797 0.957031 16.2918V6.7085C0.957031 5.12068 2.24422 3.8335 3.83203 3.8335H19.1654ZM18.4494 5.75016H4.54808L10.9049 10.7687C11.2531 11.0436 11.7443 11.0436 12.0926 10.7687L18.4494 5.75016ZM2.8737 6.87026V16.2918C2.8737 16.8211 3.30276 17.2502 3.83203 17.2502H19.1654C19.6947 17.2502 20.1237 16.8211 20.1237 16.2918V6.87028L13.2801 12.2731C12.2357 13.0977 10.7617 13.0977 9.71725 12.2731L2.8737 6.87026Z" fill="white"/>
</g>
</svg>
