<svg width="25" height="25" viewBox="0 0 25 25" fill="none" xmlns="http://www.w3.org/2000/svg">
<g id="insta_svgrepo.com">
<path id="Vector" d="M3.125 11.4583C3.125 7.52996 3.125 5.56578 4.34539 4.34539C5.56578 3.125 7.52996 3.125 11.4583 3.125H13.5417C17.47 3.125 19.4343 3.125 20.6546 4.34539C21.875 5.56578 21.875 7.52996 21.875 11.4583V13.5417C21.875 17.47 21.875 19.4343 20.6546 20.6546C19.4343 21.875 17.47 21.875 13.5417 21.875H11.4583C7.52996 21.875 5.56578 21.875 4.34539 20.6546C3.125 19.4343 3.125 17.47 3.125 13.5417V11.4583Z" stroke="white" stroke-width="1.5"/>
<path id="Vector_2" d="M17.1875 9.375C18.0504 9.375 18.75 8.67544 18.75 7.8125C18.75 6.94956 18.0504 6.25 17.1875 6.25C16.3246 6.25 15.625 6.94956 15.625 7.8125C15.625 8.67544 16.3246 9.375 17.1875 9.375Z" fill="white"/>
<path id="Vector_3" d="M12.5013 16.1457C14.5148 16.1457 16.1471 14.5134 16.1471 12.4998C16.1471 10.4863 14.5148 8.854 12.5013 8.854C10.4878 8.854 8.85547 10.4863 8.85547 12.4998C8.85547 14.5134 10.4878 16.1457 12.5013 16.1457Z" stroke="white"/>
</g>
</svg>
