<svg width="21" height="21" viewBox="0 0 21 21" fill="none" xmlns="http://www.w3.org/2000/svg">
<g id="call-cancel_svgrepo.com">
<path id="Vector" d="M13.689 13.6009L14.0875 13.1813L13.1359 12.2775L12.7373 12.697L13.689 13.6009ZM15.3989 13.0047L17.0706 13.9669L17.7253 12.8294L16.0537 11.8672L15.3989 13.0047ZM17.3932 15.9618L16.1502 17.2705L17.1018 18.1744L18.3448 16.8657L17.3932 15.9618ZM15.4023 17.6898C14.1467 17.8138 10.8704 17.708 7.31429 13.964L6.36266 14.8679C10.2383 18.9483 13.9354 19.1535 15.5312 18.996L15.4023 17.6898ZM7.31429 13.964C3.92268 10.3932 3.35377 7.38128 3.28286 6.06019L1.97225 6.13053C2.0591 7.74861 2.74613 11.0604 6.36266 14.8679L7.31429 13.964ZM8.51772 8.15656L8.76867 7.89235L7.81704 6.98844L7.56608 7.25266L8.51772 8.15656ZM8.96581 4.60277L7.86247 3.04222L6.79078 3.79994L7.89415 5.36049L8.96581 4.60277ZM4.12798 2.70578L2.75458 4.15171L3.70622 5.05561L5.07962 3.60968L4.12798 2.70578ZM8.04189 7.70461C7.56608 7.25266 7.56547 7.2533 7.56486 7.25394C7.56465 7.25416 7.56404 7.25481 7.56363 7.25525C7.5628 7.25614 7.56195 7.25704 7.56109 7.25797C7.55937 7.25983 7.55758 7.26176 7.55574 7.26378C7.55208 7.26781 7.54818 7.27218 7.54409 7.27689C7.53591 7.2863 7.52691 7.29707 7.5173 7.30922C7.49806 7.33353 7.4763 7.3634 7.45347 7.39906C7.4077 7.4706 7.35806 7.56482 7.31601 7.68296C7.23052 7.92321 7.18394 8.24136 7.24215 8.63867C7.35652 9.41928 7.86801 10.469 9.20442 11.876L10.1561 10.9721C8.90692 9.65693 8.59919 8.84694 8.54078 8.44839C8.51261 8.25611 8.54124 8.15479 8.55256 8.12298C8.55892 8.10509 8.56309 8.10012 8.55901 8.10649C8.55704 8.10957 8.5531 8.11537 8.54649 8.12373C8.54317 8.12791 8.53919 8.13274 8.53443 8.13822C8.53205 8.14095 8.52947 8.14385 8.5267 8.14691C8.5253 8.14844 8.52386 8.15001 8.52237 8.15162C8.52162 8.15242 8.52086 8.15324 8.52008 8.15406C8.5197 8.15447 8.5191 8.1551 8.51891 8.1553C8.51831 8.15593 8.51772 8.15656 8.04189 7.70461ZM9.20442 11.876C10.537 13.2789 11.5433 13.8304 12.3111 13.9551C12.7051 14.0191 13.0241 13.968 13.2656 13.8728C13.3836 13.8262 13.477 13.7715 13.547 13.7218C13.582 13.697 13.6112 13.6734 13.6346 13.6529C13.6464 13.6426 13.6568 13.6329 13.6658 13.6242C13.6703 13.6199 13.6745 13.6157 13.6784 13.6118C13.6803 13.6099 13.6821 13.608 13.6839 13.6062C13.6848 13.6053 13.6856 13.6044 13.6865 13.6035C13.687 13.6031 13.6876 13.6024 13.6877 13.6022C13.6884 13.6015 13.689 13.6009 13.2131 13.149C12.7373 12.697 12.7379 12.6964 12.7385 12.6958C12.7387 12.6955 12.7393 12.6949 12.7397 12.6945C12.7405 12.6937 12.7413 12.6929 12.742 12.6921C12.7436 12.6906 12.7451 12.689 12.7465 12.6875C12.7495 12.6846 12.7523 12.6818 12.7549 12.6793C12.7602 12.6742 12.765 12.6698 12.7692 12.6661C12.7775 12.6588 12.7837 12.6541 12.7877 12.6513C12.7959 12.6454 12.7951 12.6474 12.784 12.6518C12.7671 12.6584 12.6875 12.6865 12.5215 12.6596C12.1693 12.6024 11.4092 12.2915 10.1561 10.9721L9.20442 11.876ZM7.86247 3.04222C6.97558 1.78784 5.20089 1.57621 4.12798 2.70578L5.07962 3.60968C5.5371 3.12804 6.34248 3.16587 6.79078 3.79994L7.86247 3.04222ZM3.28286 6.06019C3.26411 5.7108 3.41625 5.36089 3.70622 5.05561L2.75458 4.15171C2.28571 4.64534 1.92934 5.33107 1.97225 6.13053L3.28286 6.06019ZM16.1502 17.2705C15.906 17.5276 15.6506 17.6653 15.4023 17.6898L15.5312 18.996C16.1849 18.9314 16.7139 18.5828 17.1018 18.1744L16.1502 17.2705ZM8.76867 7.89235C9.61532 7.001 9.67526 5.6061 8.96581 4.60277L7.89415 5.36049C8.26352 5.88293 8.20688 6.57801 7.81704 6.98844L8.76867 7.89235ZM17.0706 13.9669C17.7888 14.3804 17.9294 15.3974 17.3932 15.9618L18.3448 16.8657C19.4866 15.6635 19.1541 13.6518 17.7253 12.8294L17.0706 13.9669ZM14.0875 13.1813C14.4248 12.8263 14.9503 12.7465 15.3989 13.0047L16.0537 11.8672C15.0925 11.3139 13.9004 11.4726 13.1359 12.2775L14.0875 13.1813Z" fill="white"/>
</g>
</svg>
