<svg width="23" height="19" viewBox="0 0 23 19" fill="none" xmlns="http://www.w3.org/2000/svg">
<g id="twitter_svgrepo.com" clip-path="url(#clip0_104_258)">
<path id="Vector" d="M15.094 1.46154C16.2812 1.46154 17.6281 1.938 18.3829 2.73162C19.3214 2.54746 20.2071 2.21058 21.0031 1.74362C20.6958 2.69435 20.0401 3.49235 19.1884 3.99658C20.022 3.89646 20.8202 3.67942 21.5598 3.35423C21.006 4.1705 20.3068 4.88885 19.5 5.46396C19.5072 5.63788 19.5115 5.81327 19.5115 5.98865C19.5115 11.3722 15.5047 17.5385 7.90888 17.5385C5.57794 17.5385 3.25856 16.9049 1.43299 15.7488C1.75545 15.7883 2.08441 15.8073 2.41699 15.8073C4.35174 15.8073 6.13248 15.1562 7.54739 14.0615C5.73844 14.03 4.21292 12.8513 3.68947 11.2341C3.94035 11.2809 4.20063 11.3072 4.46669 11.3072C4.8412 11.3072 5.20776 11.2582 5.55336 11.164C3.66417 10.792 2.24131 9.14485 2.24131 7.17104C2.24131 7.15204 2.24131 7.13523 2.24131 7.11769C2.79874 7.42315 3.43425 7.60731 4.1117 7.62923C3.00334 6.89627 2.27529 5.65177 2.27529 4.23773C2.27529 3.49088 2.47845 2.79008 2.83344 2.19085C4.8694 4.65281 7.91322 6.27585 11.346 6.44685C11.2744 6.14869 11.2376 5.83446 11.2376 5.5195C11.2376 3.26873 12.8123 1.46154 15.094 1.46154ZM21.5598 3.35423H21.5634H21.5598ZM15.094 0C12.3148 0 10.1654 2.01181 9.8429 4.788C7.53726 4.31519 5.43985 3.07215 3.93312 1.25035C3.6591 0.918577 3.25567 0.729308 2.83344 0.729308C2.79584 0.729308 2.75825 0.730769 2.72065 0.733692C2.25793 0.770961 1.84149 1.03258 1.60218 1.43669C1.10258 2.28146 0.837967 3.24973 0.837967 4.23773C0.837967 4.89615 0.955093 5.5385 1.17488 6.13846C0.93991 6.403 0.804709 6.75085 0.804709 7.11769V7.17104C0.804709 8.60262 1.36069 9.93042 2.28469 10.9265C2.23191 11.1764 2.24347 11.4402 2.32445 11.6908C2.64401 12.6774 3.22386 13.5265 3.97578 14.174C3.4704 14.288 2.94912 14.3457 2.41699 14.3457C2.13575 14.3457 1.86318 14.3297 1.60651 14.2975C1.54795 14.2909 1.49011 14.2873 1.43227 14.2873C0.830014 14.2873 0.282705 14.6724 0.0780965 15.2628C-0.146033 15.9088 0.101232 16.6272 0.673846 16.9897C2.72138 18.286 5.29091 19 7.90888 19C12.8535 19 15.924 16.693 17.6289 14.7579C19.6966 12.4114 20.8997 9.29392 20.9467 6.17865C21.6169 5.61377 22.2083 4.96192 22.7094 4.23261C22.8908 3.98854 22.9986 3.68381 22.9986 3.35423C22.9986 2.85658 22.7549 2.41738 22.3826 2.15285C22.5438 1.59015 22.3587 0.980692 21.909 0.608731C21.6466 0.392423 21.3256 0.282077 21.0024 0.282077C20.7558 0.282077 20.5078 0.346385 20.2844 0.477923C19.8036 0.76 19.2896 0.982154 18.7481 1.14146C17.7532 0.432615 16.4034 0 15.094 0Z" fill="white"/>
</g>
<defs>
<clipPath id="clip0_104_258">
<rect width="23" height="19" fill="white"/>
</clipPath>
</defs>
</svg>
