<svg width="27" height="27" viewBox="0 0 27 27" fill="none" xmlns="http://www.w3.org/2000/svg">
<g id="address-book_svgrepo.com">
<path id="Vector" fill-rule="evenodd" clip-rule="evenodd" d="M8.09961 8.09994V18.8999C8.09961 20.0929 9.06667 21.0599 10.2596 21.0599H18.8996C20.0926 21.0599 21.0596 20.0929 21.0596 18.8999V8.09994C21.0596 6.90701 20.0926 5.93994 18.8996 5.93994H10.2596C9.06667 5.93994 8.09961 6.90701 8.09961 8.09994Z" stroke="black" stroke-width="1.8" stroke-linecap="round" stroke-linejoin="round"/>
<path id="Vector_2" fill-rule="evenodd" clip-rule="evenodd" d="M16.7399 11.3399C16.7399 12.5329 15.7729 13.4999 14.5799 13.4999C13.387 13.4999 12.4199 12.5329 12.4199 11.3399C12.4199 10.147 13.387 9.17993 14.5799 9.17993C15.7729 9.17993 16.7399 10.147 16.7399 11.3399Z" stroke="black" stroke-width="1.8" stroke-linecap="round" stroke-linejoin="round"/>
<path id="Vector_3" d="M7.61603 18.2513C7.25766 18.5191 7.18422 19.0267 7.45198 19.385C7.71976 19.7434 8.22734 19.8168 8.58569 19.5491L7.61603 18.2513ZM20.576 19.5491C20.9344 19.8168 21.442 19.7434 21.7097 19.385C21.9775 19.0267 21.904 18.5191 21.5457 18.2513L20.576 19.5491ZM5.94086 9.4502C5.49351 9.4502 5.13086 9.81285 5.13086 10.2602C5.13086 10.7075 5.49351 11.0702 5.94086 11.0702V9.4502ZM8.10086 11.0702C8.54821 11.0702 8.91086 10.7075 8.91086 10.2602C8.91086 9.81285 8.54821 9.4502 8.10086 9.4502V11.0702ZM5.94086 12.6902C5.49351 12.6902 5.13086 13.0529 5.13086 13.5002C5.13086 13.9475 5.49351 14.3102 5.94086 14.3102V12.6902ZM8.10086 14.3102C8.54821 14.3102 8.91086 13.9475 8.91086 13.5002C8.91086 13.0529 8.54821 12.6902 8.10086 12.6902V14.3102ZM5.94086 15.9302C5.49351 15.9302 5.13086 16.2929 5.13086 16.7402C5.13086 17.1875 5.49351 17.5502 5.94086 17.5502V15.9302ZM8.10086 17.5502C8.54821 17.5502 8.91086 17.1875 8.91086 16.7402C8.91086 16.2929 8.54821 15.9302 8.10086 15.9302V17.5502ZM8.58569 19.5491C12.141 16.8925 17.0207 16.8925 20.576 19.5491L21.5457 18.2513C17.4153 15.1651 11.7464 15.1651 7.61603 18.2513L8.58569 19.5491ZM5.94086 11.0702H8.10086V9.4502H5.94086V11.0702ZM5.94086 14.3102H8.10086V12.6902H5.94086V14.3102ZM5.94086 17.5502H8.10086V15.9302H5.94086V17.5502Z" fill="black"/>
</g>
</svg>
