<svg width="68" height="69" viewBox="0 0 68 69" fill="none" xmlns="http://www.w3.org/2000/svg">
<g id="Drinks" clip-path="url(#clip0_104_580)">
<path id="Vector" d="M29.0634 22.9772H28.8916C28.3483 19.5121 26.6036 16.3576 23.9718 14.0817C21.34 11.8059 17.994 10.5582 14.5361 10.5633C13.2105 10.5633 11.926 10.7506 10.7005 11.0872L10.1243 7.85938C9.47796 3.99614 5.93672 2.85195 4.32714 2.93536L-5.76675 2.40762C-6.22108 2.36819 -6.62534 2.74504 -6.64925 3.21515C-6.65499 3.32698 -6.63896 3.43887 -6.60206 3.54441C-6.56517 3.64995 -6.50814 3.74708 -6.43423 3.83024C-6.36032 3.9134 -6.27098 3.98097 -6.17133 4.02908C-6.07167 4.0772 -5.96365 4.10491 -5.85343 4.11063L4.28305 4.64064C4.3122 4.64216 4.34358 4.6414 4.37571 4.64064C5.32174 4.57619 7.99242 5.31396 8.46767 8.15509L9.08938 11.6347C6.76544 12.5836 4.72333 14.1271 3.16197 16.1149C1.60061 18.1026 0.573221 20.4668 0.179889 22.9772H0.0110102C-0.416031 22.978 -0.825356 23.1505 -1.12732 23.4569C-1.42928 23.7633 -1.59928 24.1787 -1.60007 24.612V29.147C-1.59928 29.5803 -1.42928 29.9957 -1.12732 30.3021C-0.825356 30.6085 -0.416031 30.781 0.0110102 30.7818H0.268065L2.79453 53.6117C2.78407 53.6648 2.76314 53.7141 2.76314 53.7702C2.76314 53.9036 2.79901 54.0257 2.85281 54.1379L4.07083 65.1415C4.11479 65.5414 4.30254 65.9108 4.59813 66.179C4.89373 66.4472 5.27642 66.5953 5.67295 66.5951H23.3253C24.1465 66.5951 24.8347 65.9703 24.9267 65.1415L28.7309 30.7818H29.0642C29.4912 30.781 29.9006 30.6085 30.2025 30.3021C30.5045 29.9957 30.6745 29.5803 30.6753 29.147V24.612C30.6745 24.1785 30.5044 23.7631 30.2023 23.4566C29.9001 23.1502 29.4906 22.9778 29.0634 22.9772ZM14.5361 12.2693C20.8115 12.2693 26.1013 16.8097 27.202 22.9772H12.8256L11.0024 12.7713C12.1517 12.4386 13.341 12.2697 14.5361 12.2693ZM9.39725 13.3582L11.1159 22.9772H1.86868C2.64956 18.6021 5.54442 15.0559 9.39725 13.3582ZM24.5874 52.9179H4.41009L2.65853 37.0957H26.0214C26.1365 37.0957 26.2463 37.0722 26.3464 37.0289L24.5874 52.9179ZM23.2618 64.8898H5.73422L4.5984 54.6239H24.3983L23.2618 64.8898ZM28.9932 29.0765H27.9784C27.551 29.0765 27.1908 29.4033 27.143 29.834L26.5078 35.5663C26.3686 35.456 26.198 35.3943 26.0214 35.3904H2.48292C2.47844 35.3904 2.4747 35.3927 2.47022 35.3927L1.95985 30.7833H25.1747C25.3977 30.7833 25.6115 30.6934 25.7692 30.5335C25.9268 30.3735 26.0154 30.1565 26.0154 29.9303C26.0154 29.704 25.9268 29.4871 25.7692 29.3271C25.6115 29.1671 25.3977 29.0773 25.1747 29.0773H0.0812516V24.684H28.994L28.9932 29.0765Z" fill="#1D3274"/>
</g>
<defs>
<clipPath id="clip0_104_580">
<rect width="68" height="69" fill="white"/>
</clipPath>
</defs>
</svg>
