<svg width="17" height="17" viewBox="0 0 17 17" fill="none" xmlns="http://www.w3.org/2000/svg">
<g id="mail_svgrepo.com" clip-path="url(#clip0_104_60)">
<g id="Page-1">
<g id="Icon-Set">
<path id="mail" fill-rule="evenodd" clip-rule="evenodd" d="M15.9375 12.75C15.9375 12.8578 15.9168 12.9598 15.887 13.0571L11.1562 7.96875L15.9375 4.25V12.75ZM1.88912 13.7838L6.68312 8.67531L8.5 10.0486L10.2383 8.66681L15.1109 13.7838C15.0349 13.8014 1.96509 13.8014 1.88912 13.7838ZM1.0625 12.75V4.25L5.84375 7.96875L1.11297 13.0571C1.08322 12.9598 1.0625 12.8578 1.0625 12.75ZM15.4062 3.1875L8.5 8.5L1.59375 3.1875H15.4062ZM14.875 2.125H2.125C0.951469 2.125 0 3.07647 0 4.25V12.75C0 13.9235 0.951469 14.875 2.125 14.875H14.875C16.0485 14.875 17 13.9235 17 12.75V4.25C17 3.07647 16.0485 2.125 14.875 2.125Z" fill="black"/>
</g>
</g>
</g>
<defs>
<clipPath id="clip0_104_60">
<rect width="17" height="17" fill="white"/>
</clipPath>
</defs>
</svg>
