<svg width="69" height="45" viewBox="0 0 69 45" fill="none" xmlns="http://www.w3.org/2000/svg">
<path id="Vector" d="M64.6875 36.3701C64.6957 32.4773 63.9188 28.6214 62.4016 25.0245C60.8843 21.4276 58.6566 18.1608 55.8469 15.4124C54.5806 14.189 53.21 13.0743 51.75 12.0802V9.92434C51.75 9.22976 51.6106 8.54198 51.3397 7.90027C51.0688 7.25856 50.6717 6.67549 50.1711 6.18434C49.6706 5.6932 49.0763 5.3036 48.4223 5.0378C47.7683 4.77199 47.0673 4.63519 46.3594 4.63519H40.8674C40.3607 3.38594 39.4837 2.31463 38.3496 1.55986C37.2156 0.805097 35.8768 0.401611 34.5065 0.401611C33.1362 0.401611 31.7974 0.805097 30.6633 1.55986C29.5293 2.31463 28.6522 3.38594 28.1455 4.63519H22.6406C21.2109 4.63519 19.8398 5.19243 18.8289 6.18434C17.8179 7.17625 17.25 8.52157 17.25 9.92434V12.0908C13.2566 14.8128 9.99401 18.4429 7.74108 22.6709C5.48815 26.8989 4.31179 31.5991 4.3125 36.3701C3.16875 36.3701 2.07185 36.8159 1.2631 37.6094C0.454351 38.403 0 39.4792 0 40.6014C0 41.7236 0.454351 42.7999 1.2631 43.5934C2.07185 44.3869 3.16875 44.8327 4.3125 44.8327H64.6875C65.8312 44.8327 66.9281 44.3869 67.7369 43.5934C68.5456 42.7999 69 41.7236 69 40.6014C69 39.4792 68.5456 38.403 67.7369 37.6094C66.9281 36.8159 65.8312 36.3701 64.6875 36.3701ZM17.25 14.7438V20.5026C17.25 20.7832 17.3636 21.0523 17.5658 21.2506C17.768 21.449 18.0422 21.5605 18.3281 21.5605C18.6141 21.5605 18.8883 21.449 19.0905 21.2506C19.2927 21.0523 19.4062 20.7832 19.4062 20.5026V9.92434C19.4062 9.08268 19.747 8.27549 20.3536 7.68034C20.9601 7.0852 21.7828 6.75085 22.6406 6.75085H27.6388L25.875 31.0069C25.8548 31.2866 25.9487 31.5627 26.1359 31.7745C26.3231 31.9864 26.5883 32.1166 26.8733 32.1367C27.0152 32.1473 27.1578 32.1303 27.2929 32.0867C27.428 32.043 27.5529 31.9736 27.6606 31.8823C27.7682 31.7911 27.8564 31.6798 27.92 31.555C27.9836 31.4302 28.0214 31.2942 28.0312 31.155L29.67 8.4603L29.8015 6.79316C29.8207 6.50556 29.8757 6.22135 29.9654 5.9469C30.2292 4.9564 30.8219 4.08042 31.6499 3.45747C32.4779 2.83451 33.4939 2.50012 34.5373 2.50716C35.5806 2.5142 36.5918 2.86227 37.411 3.49633C38.2302 4.1304 38.8106 5.01429 39.0605 6.00825C39.1431 6.26643 39.1931 6.5336 39.2093 6.80374L40.9688 31.1571C40.9884 31.4243 41.1106 31.6742 41.3107 31.8563C41.5108 32.0385 41.7739 32.1395 42.0469 32.1388H42.1245C42.2662 32.1291 42.4046 32.0921 42.5317 32.0298C42.6587 31.9675 42.772 31.8812 42.865 31.7758C42.958 31.6705 43.0288 31.5481 43.0734 31.4158C43.118 31.2834 43.1356 31.1438 43.125 31.0048L41.3612 6.75085H46.3594C47.2172 6.75085 48.0399 7.0852 48.6464 7.68034C49.253 8.27549 49.5938 9.08268 49.5938 9.92434V20.5026C49.5938 20.7832 49.7073 21.0523 49.9095 21.2506C50.1117 21.449 50.3859 21.5605 50.6719 21.5605C50.9578 21.5605 51.232 21.449 51.4342 21.2506C51.6364 21.0523 51.75 20.7832 51.75 20.5026V14.7078C52.6542 15.392 53.5181 16.1259 54.3375 16.906C56.9442 19.4597 59.0102 22.4942 60.4165 25.8348C61.8227 29.1753 62.5415 32.7558 62.5312 36.3701H6.46875C6.47117 32.1982 7.44351 28.0819 9.31177 24.3343C11.18 20.5867 13.895 17.3067 17.25 14.7438ZM64.6875 42.7171H4.3125C3.74063 42.7171 3.19218 42.4942 2.7878 42.0974C2.38343 41.7007 2.15625 41.1625 2.15625 40.6014C2.15625 40.0403 2.38343 39.5022 2.7878 39.1054C3.19218 38.7087 3.74063 38.4858 4.3125 38.4858H64.6875C65.2594 38.4858 65.8078 38.7087 66.2122 39.1054C66.6166 39.5022 66.8438 40.0403 66.8438 40.6014C66.8438 41.1625 66.6166 41.7007 66.2122 42.0974C65.8078 42.4942 65.2594 42.7171 64.6875 42.7171Z" fill="#1D3274"/>
</svg>
