<svg width="68" height="68" viewBox="0 0 68 68" fill="none" xmlns="http://www.w3.org/2000/svg">
<g id="Food">
<path id="Vector" d="M34 13.8125C30.0073 13.8125 26.1043 14.9965 22.7844 17.2147C19.4646 19.4329 16.8771 22.5858 15.3492 26.2746C13.8212 29.9634 13.4215 34.0224 14.2004 37.9384C14.9793 41.8544 16.902 45.4514 19.7253 48.2747C22.5486 51.098 26.1456 53.0207 30.0616 53.7996C33.9776 54.5785 38.0366 54.1788 41.7254 52.6508C45.4142 51.1229 48.5671 48.5354 50.7853 45.2156C53.0035 41.8958 54.1875 37.9927 54.1875 34C54.1816 28.6478 52.0528 23.5164 48.2682 19.7318C44.4836 15.9472 39.3523 13.8184 34 13.8125ZM34 52.0625C30.4276 52.0625 26.9354 51.0032 23.965 49.0184C20.9947 47.0337 18.6795 44.2127 17.3124 40.9122C15.9453 37.6117 15.5876 33.98 16.2846 30.4762C16.9815 26.9724 18.7018 23.754 21.2279 21.2279C23.754 18.7018 26.9724 16.9815 30.4762 16.2846C33.98 15.5876 37.6117 15.9453 40.9122 17.3124C44.2127 18.6795 47.0337 20.9946 49.0184 23.965C51.0032 26.9354 52.0625 30.4276 52.0625 34C52.0572 38.7888 50.1524 43.38 46.7662 46.7662C43.38 50.1524 38.7888 52.0572 34 52.0625Z" fill="#1D3274"/>
<path id="Vector_2" d="M13.8125 22.3125V11.6875H11.6875V21.25H10.625V11.6875H8.5V21.25H7.4375V11.6875H5.3125V21.25H4.25V11.6875H2.125V27.625C2.1258 28.284 2.33046 28.9267 2.71091 29.4648C3.09136 30.003 3.62896 30.4103 4.25 30.6308V55.25C4.25 56.0954 4.58582 56.9061 5.1836 57.5039C5.78137 58.1017 6.59212 58.4375 7.4375 58.4375H8.5C9.34538 58.4375 10.1561 58.1017 10.7539 57.5039C11.3517 56.9061 11.6875 56.0954 11.6875 55.25V30.6308C12.3085 30.4103 12.8461 30.003 13.2266 29.4648C13.607 28.9267 13.8117 28.284 13.8125 27.625V22.3125ZM11.6875 27.625C11.6875 27.9068 11.5756 28.177 11.3763 28.3763C11.177 28.5756 10.9068 28.6875 10.625 28.6875C10.3432 28.6875 10.073 28.7994 9.8737 28.9987C9.67444 29.198 9.5625 29.4682 9.5625 29.75V55.25C9.5625 55.5318 9.45056 55.802 9.2513 56.0013C9.05204 56.2006 8.78179 56.3125 8.5 56.3125H7.4375C7.15571 56.3125 6.88546 56.2006 6.6862 56.0013C6.48694 55.802 6.375 55.5318 6.375 55.25V29.75C6.375 29.4682 6.26306 29.198 6.0638 28.9987C5.86454 28.7994 5.59429 28.6875 5.3125 28.6875C5.03071 28.6875 4.76046 28.5756 4.5612 28.3763C4.36194 28.177 4.25 27.9068 4.25 27.625V23.375H11.6875V27.625ZM64.8125 10.625C62.2772 10.6278 59.8466 11.6362 58.0539 13.4289C56.2612 15.2216 55.2528 17.6522 55.25 20.1875V34C55.25 34.8454 55.5858 35.6561 56.1836 36.2539C56.7814 36.8517 57.5921 37.1875 58.4375 37.1875V57.375C58.4375 57.6568 58.5494 57.927 58.7487 58.1263C58.948 58.3256 59.2182 58.4375 59.5 58.4375H64.8125C65.0943 58.4375 65.3645 58.3256 65.5638 58.1263C65.7631 57.927 65.875 57.6568 65.875 57.375V11.6875C65.875 11.4057 65.7631 11.1355 65.5638 10.9362C65.3645 10.7369 65.0943 10.625 64.8125 10.625ZM63.75 56.3125H60.5625V36.125C60.5625 35.8432 60.4506 35.573 60.2513 35.3737C60.052 35.1744 59.7818 35.0625 59.5 35.0625H58.4375C58.1557 35.0625 57.8855 34.9506 57.6862 34.7513C57.4869 34.552 57.375 34.2818 57.375 34V20.1875C57.3772 18.3996 58.0224 16.6721 59.1928 15.3205C60.3633 13.9688 61.9808 13.0833 63.75 12.8254V56.3125Z" fill="#1D3274"/>
<path id="Vector_3" d="M60.5625 17H58.4375V32.9375H60.5625V17Z" fill="black"/>
<path id="Vector_4" d="M34 23.375C31.8986 23.375 29.8443 23.9981 28.0971 25.1656C26.3498 26.3331 24.988 27.9925 24.1838 29.934C23.3796 31.8755 23.1692 34.0118 23.5792 36.0728C23.9891 38.1339 25.0011 40.0271 26.487 41.513C27.9729 42.9989 29.8661 44.0109 31.9272 44.4208C33.9882 44.8308 36.1246 44.6204 38.066 43.8162C40.0075 43.012 41.6669 41.6502 42.8344 39.9029C44.0019 38.1557 44.625 36.1014 44.625 34C44.6219 31.183 43.5015 28.4823 41.5096 26.4904C39.5177 24.4985 36.817 23.3781 34 23.375ZM34 42.5C32.3189 42.5 30.6755 42.0015 29.2777 41.0675C27.8798 40.1335 26.7904 38.806 26.147 37.2528C25.5037 35.6996 25.3354 33.9906 25.6633 32.3417C25.9913 30.6929 26.8009 29.1783 27.9896 27.9896C29.1783 26.8008 30.6929 25.9913 32.3417 25.6633C33.9906 25.3354 35.6996 25.5037 37.2528 26.147C38.806 26.7904 40.1335 27.8798 41.0675 29.2777C42.0015 30.6755 42.5 32.3189 42.5 34C42.4975 36.2536 41.6011 38.4141 40.0076 40.0076C38.4141 41.6011 36.2536 42.4975 34 42.5Z" fill="#1D3274"/>
</g>
</svg>
