<svg width="57" height="58" viewBox="0 0 57 58" fill="none" xmlns="http://www.w3.org/2000/svg">
<g id="hotels" clip-path="url(#clip0_104_567)">
<path id="Vector" d="M25.9951 25.375H18.5361C18.3147 25.375 18.1023 25.4645 17.9457 25.6238C17.7891 25.7832 17.7012 25.9993 17.7012 26.2246V33.8145C17.7012 34.0398 17.7891 34.2559 17.9457 34.4152C18.1023 34.5746 18.3147 34.6641 18.5361 34.6641H25.9951C26.2166 34.6641 26.4289 34.5746 26.5855 34.4152C26.7421 34.2559 26.8301 34.0398 26.8301 33.8145V26.2246C26.8301 25.9993 26.7421 25.7832 26.5855 25.6238C26.4289 25.4645 26.2166 25.375 25.9951 25.375ZM25.1602 32.9648H19.3711V27.0742H25.1602V32.9648ZM52.8252 18.2383H44.3086V14.4434C44.3074 13.3171 43.8671 12.2373 43.0845 11.4409C42.3018 10.6445 41.2406 10.1966 40.1338 10.1953H39.2988V4.24805C39.2976 3.12178 38.8573 2.04201 38.0747 1.24562C37.292 0.449224 36.2309 0.0012593 35.124 0L21.876 0C20.7691 0.0012593 19.708 0.449224 18.9253 1.24562C18.1427 2.04201 17.7024 3.12178 17.7012 4.24805V10.1953H16.8662C15.7594 10.1966 14.6982 10.6445 13.9155 11.4409C13.1329 12.2373 12.6926 13.3171 12.6914 14.4434V18.2383H4.1748C3.06796 18.2395 2.0068 18.6875 1.22414 19.4839C0.441479 20.2803 0.00123759 21.3601 0 22.4863L0 57.1504C0 57.3757 0.0879688 57.5918 0.244554 57.7512C0.40114 57.9105 0.613515 58 0.834961 58H56.165C56.3865 58 56.5989 57.9105 56.7554 57.7512C56.912 57.5918 57 57.3757 57 57.1504V22.4863C56.9988 21.3601 56.5585 20.2803 55.7759 19.4839C54.9932 18.6875 53.932 18.2395 52.8252 18.2383ZM12.6914 46.5586H6.90234V40.668H12.6914V46.5586ZM12.6914 32.9648H6.90234V27.0742H12.6914V32.9648ZM12.6914 25.375H6.06738C5.84594 25.375 5.63356 25.4645 5.47698 25.6238C5.32039 25.7832 5.23242 25.9993 5.23242 26.2246V33.8145C5.23242 34.0398 5.32039 34.2559 5.47698 34.4152C5.63356 34.5746 5.84594 34.6641 6.06738 34.6641H12.6914V38.9688H6.06738C5.84594 38.9688 5.63356 39.0583 5.47698 39.2176C5.32039 39.3769 5.23242 39.593 5.23242 39.8184V47.4082C5.23242 47.6335 5.32039 47.8496 5.47698 48.009C5.63356 48.1683 5.84594 48.2578 6.06738 48.2578H12.6914V56.3008H1.66992V22.4863C1.67066 21.8106 1.9348 21.1627 2.4044 20.6849C2.874 20.207 3.51069 19.9382 4.1748 19.9375H12.6914V25.375ZM19.3711 4.24805C19.3718 3.57229 19.636 2.92442 20.1056 2.44658C20.5752 1.96875 21.2119 1.69997 21.876 1.69922H35.124C35.7881 1.7 36.4248 1.96879 36.8944 2.44661C37.364 2.92444 37.6281 3.57229 37.6289 4.24805V17.7285C37.6281 18.4043 37.364 19.0521 36.8944 19.5299C36.4248 20.0078 35.7881 20.2766 35.124 20.2773H21.876C21.2119 20.2766 20.5752 20.0078 20.1056 19.53C19.636 19.0521 19.3718 18.4043 19.3711 17.7285V4.24805ZM32.8975 56.3008H24.1025V42.3105C24.1033 41.6348 24.3674 40.9869 24.837 40.5091C25.3066 40.0312 25.9433 39.7625 26.6074 39.7617H30.3926C31.0567 39.7625 31.6934 40.0313 32.163 40.5091C32.6325 40.9869 32.8967 41.6348 32.8975 42.3105V56.3008ZM42.6387 56.3008H34.5674V42.3105C34.5661 41.1843 34.1259 40.1045 33.3432 39.3081C32.5606 38.5117 31.4994 38.0638 30.3926 38.0625H26.6074C25.5006 38.0638 24.4394 38.5117 23.6568 39.3081C22.8741 40.1045 22.4339 41.1843 22.4326 42.3105V56.3008H14.3613V14.4434C14.3621 13.7676 14.6262 13.1197 15.0958 12.6419C15.5654 12.1641 16.2021 11.8953 16.8662 11.8945H17.7012V17.7285C17.7024 18.8548 18.1427 19.9346 18.9253 20.7309C19.708 21.5273 20.7691 21.9753 21.876 21.9766H35.124C36.2309 21.9753 37.292 21.5273 38.0747 20.7309C38.8573 19.9346 39.2976 18.8548 39.2988 17.7285V11.8945H40.1338C40.7979 11.8953 41.4346 12.1641 41.9042 12.6419C42.3738 13.1198 42.6379 13.7676 42.6387 14.4434V56.3008ZM44.3086 27.0742H50.0977V32.9648H44.3086V27.0742ZM44.3086 40.668H50.0977V46.5586H44.3086V40.668ZM55.3301 56.3008H44.3086V48.2578H50.9326C51.1541 48.2578 51.3664 48.1683 51.523 48.009C51.6796 47.8496 51.7676 47.6335 51.7676 47.4082V39.8184C51.7676 39.593 51.6796 39.3769 51.523 39.2176C51.3664 39.0583 51.1541 38.9688 50.9326 38.9688H44.3086V34.6641H50.9326C51.1541 34.6641 51.3664 34.5746 51.523 34.4152C51.6796 34.2559 51.7676 34.0398 51.7676 33.8145V26.2246C51.7676 25.9993 51.6796 25.7832 51.523 25.6238C51.3664 25.4645 51.1541 25.375 50.9326 25.375H44.3086V19.9375H52.8252C53.4893 19.9383 54.126 20.2071 54.5956 20.6849C55.0652 21.1627 55.3293 21.8106 55.3301 22.4863V56.3008ZM21.6218 16.1115H35.3781C35.5995 16.1115 35.8119 16.022 35.9685 15.8627C36.1251 15.7034 36.213 15.4873 36.213 15.2619C36.213 15.0366 36.1251 14.8205 35.9685 14.6612C35.8119 14.5018 35.5995 14.4123 35.3781 14.4123H34.9398C34.7901 13.2645 34.3449 12.1774 33.6491 11.2612C32.9534 10.3451 32.0319 9.63239 30.9782 9.19549V8.40773C30.9782 7.7334 30.7149 7.08668 30.2463 6.60985C29.7777 6.13302 29.1421 5.86514 28.4794 5.86514C27.8167 5.86514 27.1811 6.13302 26.7125 6.60985C26.2439 7.08668 25.9806 7.7334 25.9806 8.40773V9.19572C24.927 9.63266 24.0057 10.3453 23.31 11.2615C22.6144 12.1776 22.1692 13.2646 22.0196 14.4123H21.6218C21.4004 14.4123 21.188 14.5018 21.0314 14.6612C20.8748 14.8205 20.7869 15.0366 20.7869 15.2619C20.7869 15.4873 20.8748 15.7034 21.0314 15.8627C21.188 16.022 21.4004 16.1115 21.6218 16.1115ZM27.6506 8.40773C27.6508 8.18398 27.7383 7.96946 27.8938 7.81124C28.0492 7.65302 28.2601 7.56403 28.48 7.56379C28.6997 7.56421 28.9103 7.6533 29.0656 7.81151C29.2209 7.96972 29.3081 8.18414 29.3082 8.40773V8.75981C29.0602 8.72991 28.8107 8.71467 28.5609 8.71416H28.3986C28.1486 8.71468 27.8988 8.72996 27.6506 8.75993V8.40773ZM28.3986 10.4134H28.5609C29.6795 10.4149 30.762 10.8161 31.6195 11.5469C32.477 12.2778 33.0549 13.2919 33.2525 14.4122H23.7069C23.9045 13.2919 24.4825 12.2778 25.34 11.5469C26.1975 10.8161 27.28 10.4149 28.3986 10.4134ZM38.4639 25.375H31.0049C30.7834 25.375 30.5711 25.4645 30.4145 25.6238C30.2579 25.7832 30.1699 25.9993 30.1699 26.2246V33.8145C30.1699 34.0398 30.2579 34.2559 30.4145 34.4152C30.5711 34.5746 30.7834 34.6641 31.0049 34.6641H38.4639C38.6853 34.6641 38.8977 34.5746 39.0543 34.4152C39.2109 34.2559 39.2988 34.0398 39.2988 33.8145V26.2246C39.2988 25.9993 39.2109 25.7832 39.0543 25.6238C38.8977 25.4645 38.6853 25.375 38.4639 25.375ZM37.6289 32.9648H31.8398V27.0742H37.6289V32.9648Z" fill="#1D3274"/>
</g>
<defs>
<clipPath id="clip0_104_567">
<rect width="57" height="58" fill="white"/>
</clipPath>
</defs>
</svg>
