<svg width="20" height="25" viewBox="0 0 20 25" fill="none" xmlns="http://www.w3.org/2000/svg">
<g id="Layer 2">
<path id="person" d="M9.8055 10.7738C10.8636 10.7738 11.8979 10.46 12.7777 9.8722C13.6575 9.28436 14.3431 8.44884 14.7481 7.47129C15.153 6.49375 15.2589 5.41808 15.0525 4.38032C14.8461 3.34256 14.3366 2.38932 13.5884 1.64114C12.8402 0.892957 11.8869 0.383439 10.8492 0.177016C9.81143 -0.029407 8.73577 0.0765367 7.75822 0.48145C6.78067 0.886363 5.94515 1.57206 5.35731 2.45183C4.76946 3.3316 4.4557 4.36593 4.4557 5.42401C4.4557 6.84287 5.01934 8.20361 6.02262 9.20689C7.0259 10.2102 8.38664 10.7738 9.8055 10.7738ZM9.8055 2.74912C10.3345 2.74912 10.8517 2.906 11.2916 3.19992C11.7315 3.49384 12.0743 3.9116 12.2768 4.40038C12.4792 4.88915 12.5322 5.42698 12.429 5.94586C12.3258 6.46474 12.071 6.94136 11.6969 7.31545C11.3228 7.68954 10.8462 7.9443 10.3273 8.04751C9.80846 8.15073 9.27063 8.09775 8.78186 7.8953C8.29309 7.69284 7.87532 7.34999 7.5814 6.91011C7.28748 6.47022 7.1306 5.95306 7.1306 5.42401C7.1306 4.71459 7.41242 4.03422 7.91406 3.53258C8.4157 3.03094 9.09607 2.74912 9.8055 2.74912ZM9.8055 13.4487C7.3225 13.4487 4.94121 14.4351 3.18547 16.1908C1.42972 17.9466 0.443359 20.3279 0.443359 22.8108C0.443359 23.1656 0.584269 23.5057 0.835089 23.7566C1.08591 24.0074 1.42609 24.1483 1.78081 24.1483C2.13552 24.1483 2.47571 24.0074 2.72653 23.7566C2.97735 23.5057 3.11826 23.1656 3.11826 22.8108C3.11826 21.0373 3.8228 19.3364 5.0769 18.0822C6.331 16.8281 8.03193 16.1236 9.8055 16.1236C11.5791 16.1236 13.28 16.8281 14.5341 18.0822C15.7882 19.3364 16.4927 21.0373 16.4927 22.8108C16.4927 23.1656 16.6336 23.5057 16.8845 23.7566C17.1353 24.0074 17.4755 24.1483 17.8302 24.1483C18.1849 24.1483 18.5251 24.0074 18.7759 23.7566C19.0267 23.5057 19.1676 23.1656 19.1676 22.8108C19.1676 20.3279 18.1813 17.9466 16.4255 16.1908C14.6698 14.4351 12.2885 13.4487 9.8055 13.4487Z" fill="#1D3274"/>
</g>
</svg>
