<svg width="29" height="30" viewBox="0 0 29 30" fill="none" xmlns="http://www.w3.org/2000/svg">
<g id="Price Tag">
<path id="10  Tag, Price Tag, Shopping Tag" d="M17.0023 27.2142C17.3492 27.2169 17.6931 27.1504 18.014 27.0187C18.3348 26.8869 18.6262 26.6925 18.871 26.4468L26.5266 18.7912C26.7856 18.5317 26.9876 18.2211 27.1197 17.8791C27.2519 17.5371 27.3112 17.1713 27.294 16.8051C27.2492 16.0621 26.927 15.3629 26.3912 14.8461L14.5558 3.00165C14.2807 2.71178 13.9486 2.48194 13.5804 2.32658C13.2122 2.17121 12.8158 2.09369 12.4162 2.09888L4.94118 2.28846C4.26261 2.3026 3.61647 2.58152 3.14077 3.06564C2.66508 3.54977 2.39756 4.20072 2.39535 4.87943L2.20577 12.3454C2.20256 12.7461 2.28094 13.1432 2.43615 13.5126C2.59136 13.882 2.82013 14.2159 3.10854 14.494L14.9259 26.3655C15.4395 26.9058 16.1405 27.2289 16.8849 27.2683L17.0023 27.2142ZM17.5891 25.1739C17.5064 25.2555 17.4072 25.3186 17.2983 25.359C17.1894 25.3995 17.0731 25.4164 16.9572 25.4086C16.6741 25.3886 16.4079 25.2667 16.2078 25.0655L4.35438 13.2121C4.24516 13.1069 4.15843 12.9807 4.09946 12.841C4.04049 12.7014 4.01051 12.5512 4.01132 12.3996L4.2009 4.92457C4.2009 4.71148 4.28555 4.50711 4.43624 4.35643C4.58692 4.20575 4.79128 4.1211 5.00438 4.1211L12.4794 3.93152C12.6307 3.93223 12.7805 3.96291 12.9199 4.02179C13.0594 4.08067 13.1858 4.16658 13.2919 4.27457L25.1453 16.128C25.3465 16.3281 25.4684 16.5943 25.4884 16.8773C25.4962 16.9933 25.4793 17.1096 25.4388 17.2185C25.3984 17.3274 25.3353 17.4266 25.2537 17.5093L17.5891 25.1739ZM8.38979 11.0183C9.10785 11.0177 9.79626 10.7319 10.3037 10.2239C10.6828 9.84524 10.9411 9.36267 11.0458 8.83721C11.1506 8.31176 11.0972 7.76703 10.8923 7.27195C10.6874 6.77687 10.3403 6.35369 9.89481 6.05594C9.44936 5.7582 8.9256 5.59927 8.38979 5.59927C7.85399 5.59927 7.33023 5.7582 6.88477 6.05594C6.43932 6.35369 6.09219 6.77687 5.8873 7.27195C5.68241 7.76703 5.62897 8.31176 5.73375 8.83721C5.83852 9.36267 6.0968 9.84524 6.4759 10.2239C6.98333 10.7319 7.67174 11.0177 8.38979 11.0183ZM8.38979 7.40721C8.50861 7.40652 8.62638 7.4293 8.73638 7.47422C8.84637 7.51915 8.94641 7.58534 9.03077 7.66902C9.11494 7.75319 9.18171 7.85312 9.22726 7.9631C9.27282 8.07307 9.29626 8.19095 9.29626 8.30999C9.29626 8.42903 9.27282 8.5469 9.22726 8.65688C9.18171 8.76686 9.11494 8.86679 9.03077 8.95096C8.94659 9.03513 8.84666 9.1019 8.73668 9.14746C8.62671 9.19301 8.50883 9.21646 8.38979 9.21646C8.27075 9.21646 8.15288 9.19301 8.0429 9.14746C7.93292 9.1019 7.83299 9.03513 7.74882 8.95096C7.66515 8.8666 7.59896 8.76656 7.55403 8.65657C7.5091 8.54658 7.48633 8.4288 7.48702 8.30999C7.48633 8.19118 7.5091 8.0734 7.55403 7.96341C7.59896 7.85341 7.66515 7.75337 7.74882 7.66902C7.83318 7.58534 7.93322 7.51915 8.04321 7.47422C8.1532 7.4293 8.27098 7.40652 8.38979 7.40721Z" fill="#1D3274"/>
</g>
</svg>
