<svg width="128" height="22" viewBox="0 0 128 22" fill="none" xmlns="http://www.w3.org/2000/svg">
<g id="Group 144">
<path id="Vector" d="M8.79051 4.45425C10.0351 2.30331 10.6574 1.22783 11.6436 1.21447C12.63 1.20113 13.327 2.25872 14.7213 4.37392L15.082 4.92115C15.4782 5.52222 15.6762 5.82276 15.9755 6.01878C16.2749 6.2148 16.6414 6.28408 17.3748 6.42269L18.0423 6.54886C20.6227 7.03661 21.9129 7.28049 22.2487 8.15963C22.5844 9.03878 21.7433 9.97098 20.0612 11.8354L19.626 12.3177C19.148 12.8476 18.9091 13.1125 18.8088 13.4375C18.7085 13.7625 18.7581 14.111 18.8576 14.8079L18.9483 15.4424C19.2984 17.8948 19.4736 19.121 18.6948 19.6777C17.916 20.2344 16.6991 19.7529 14.2652 18.79L13.6357 18.5408C12.944 18.2672 12.5982 18.1304 12.2369 18.1352C11.8756 18.1401 11.5397 18.2862 10.868 18.5783L10.2564 18.8443C7.89241 19.8721 6.71041 20.3861 5.89337 19.8511C5.07621 19.3159 5.16526 18.0861 5.34323 15.6267L5.3893 14.9903C5.43984 14.2914 5.46512 13.9419 5.34212 13.6199C5.21913 13.2979 4.9618 13.0397 4.44711 12.5233L3.97854 12.0532C2.16733 10.2361 1.26173 9.32757 1.53554 8.44016C1.80936 7.55275 3.08124 7.27418 5.62503 6.71704L6.28313 6.5729C7.00598 6.41458 7.36742 6.33543 7.65269 6.13149C7.93795 5.92756 8.11478 5.62195 8.46856 5.01073L8.79051 4.45425Z" fill="#FEB600"/>
<path id="Vector_2" d="M35.3159 4.45425C36.5605 2.30331 37.1828 1.22783 38.169 1.21447C39.1554 1.20113 39.8524 2.25872 41.2467 4.37392L41.6073 4.92115C42.0035 5.52222 42.2016 5.82276 42.5009 6.01878C42.8003 6.2148 43.1668 6.28408 43.9002 6.42269L44.5677 6.54886C47.1481 7.03661 48.4383 7.28049 48.774 8.15963C49.1098 9.03878 48.2687 9.97098 46.5866 11.8354L46.1514 12.3177C45.6734 12.8476 45.4344 13.1125 45.3342 13.4375C45.2339 13.7625 45.2835 14.111 45.383 14.8079L45.4737 15.4424C45.8238 17.8948 45.999 19.121 45.2202 19.6777C44.4414 20.2344 43.2245 19.7529 40.7906 18.79L40.161 18.5408C39.4694 18.2672 39.1236 18.1304 38.7623 18.1352C38.401 18.1401 38.0651 18.2862 37.3934 18.5783L36.7818 18.8443C34.4178 19.8721 33.2358 20.3861 32.4188 19.8511C31.6016 19.3159 31.6907 18.0861 31.8686 15.6267L31.9147 14.9903C31.9652 14.2914 31.9905 13.9419 31.8675 13.6199C31.7445 13.2979 31.4872 13.0397 30.9725 12.5233L30.5039 12.0532C28.6927 10.2361 27.7871 9.32757 28.0609 8.44016C28.3348 7.55275 29.6066 7.27418 32.1504 6.71704L32.8085 6.5729C33.5314 6.41458 33.8928 6.33543 34.1781 6.13149C34.4633 5.92756 34.6402 5.62195 34.994 5.01073L35.3159 4.45425Z" fill="#FEB600"/>
<path id="Vector_3" d="M61.8432 4.45425C63.0878 2.30331 63.7102 1.22783 64.6964 1.21447C65.6827 1.20113 66.3798 2.25872 67.774 4.37392L68.1347 4.92115C68.5309 5.52222 68.7289 5.82276 69.0283 6.01878C69.3276 6.2148 69.6942 6.28408 70.4275 6.42269L71.095 6.54886C73.6754 7.03661 74.9657 7.28049 75.3014 8.15963C75.6371 9.03878 74.7961 9.97098 73.1139 11.8354L72.6787 12.3177C72.2008 12.8476 71.9618 13.1125 71.8615 13.4375C71.7612 13.7625 71.8109 14.111 71.9104 14.8079L72.001 15.4424C72.3512 17.8948 72.5263 19.121 71.7475 19.6777C70.9688 20.2344 69.7519 19.7529 67.3179 18.79L66.6884 18.5408C65.9967 18.2672 65.6509 18.1304 65.2897 18.1352C64.9284 18.1401 64.5925 18.2862 63.9208 18.5783L63.3091 18.8443C60.9451 19.8721 59.7631 20.3861 58.9461 19.8511C58.1289 19.3159 58.218 18.0861 58.396 15.6267L58.442 14.9903C58.4926 14.2914 58.5178 13.9419 58.3949 13.6199C58.2719 13.2979 58.0145 13.0397 57.4998 12.5233L57.0313 12.0532C55.2201 10.2361 54.3145 9.32757 54.5883 8.44016C54.8621 7.55275 56.134 7.27418 58.6778 6.71704L59.3359 6.5729C60.0587 6.41458 60.4202 6.33543 60.7054 6.13149C60.9907 5.92756 61.1675 5.62195 61.5213 5.01073L61.8432 4.45425Z" fill="#FEB600"/>
<path id="Vector_4" d="M88.3686 4.45425C89.6132 2.30331 90.2356 1.22783 91.2218 1.21447C92.2081 1.20113 92.9052 2.25872 94.2994 4.37392L94.6601 4.92115C95.0563 5.52222 95.2543 5.82276 95.5537 6.01878C95.853 6.2148 96.2196 6.28408 96.9529 6.42269L97.6204 6.54886C100.201 7.03661 101.491 7.28049 101.827 8.15963C102.163 9.03878 101.321 9.97098 99.6393 11.8354L99.2041 12.3177C98.7262 12.8476 98.4872 13.1125 98.3869 13.4375C98.2866 13.7625 98.3363 14.111 98.4357 14.8079L98.5264 15.4424C98.8766 17.8948 99.0517 19.121 98.2729 19.6777C97.4941 20.2344 96.2773 19.7529 93.8433 18.79L93.2138 18.5408C92.5221 18.2672 92.1763 18.1304 91.815 18.1352C91.4538 18.1401 91.1178 18.2862 90.4461 18.5783L89.8345 18.8443C87.4705 19.8721 86.2885 20.3861 85.4715 19.8511C84.6543 19.3159 84.7434 18.0861 84.9214 15.6267L84.9674 14.9903C85.018 14.2914 85.0432 13.9419 84.9202 13.6199C84.7973 13.2979 84.5399 13.0397 84.0252 12.5233L83.5567 12.0532C81.7455 10.2361 80.8399 9.32757 81.1137 8.44016C81.3875 7.55275 82.6594 7.27418 85.2032 6.71704L85.8613 6.5729C86.5841 6.41458 86.9455 6.33543 87.2308 6.13149C87.5161 5.92756 87.6929 5.62195 88.0467 5.01073L88.3686 4.45425Z" fill="#FEB600"/>
<path id="Vector_5" d="M113.238 4.45425C114.482 2.30331 115.105 1.22783 116.091 1.21447C117.077 1.20113 117.774 2.25872 119.169 4.37392L119.529 4.92115C119.925 5.52222 120.123 5.82276 120.423 6.01878C120.722 6.2148 121.089 6.28408 121.822 6.42269L122.49 6.54886C125.07 7.03661 126.36 7.28049 126.696 8.15963C127.032 9.03878 126.191 9.97098 124.508 11.8354L124.073 12.3177C123.595 12.8476 123.356 13.1125 123.256 13.4375C123.156 13.7625 123.205 14.111 123.305 14.8079L123.396 15.4424C123.746 17.8948 123.921 19.121 123.142 19.6777C122.363 20.2344 121.146 19.7529 118.712 18.79L118.083 18.5408C117.391 18.2672 117.045 18.1304 116.684 18.1352C116.323 18.1401 115.987 18.2862 115.315 18.5783L114.704 18.8443C112.34 19.8721 111.158 20.3861 110.341 19.8511C109.523 19.3159 109.613 18.0861 109.79 15.6267L109.837 14.9903C109.887 14.2914 109.912 13.9419 109.789 13.6199C109.666 13.2979 109.409 13.0397 108.894 12.5233L108.426 12.0532C106.615 10.2361 105.709 9.32757 105.983 8.44016C106.257 7.55275 107.529 7.27418 110.072 6.71704L110.73 6.5729C111.453 6.41458 111.815 6.33543 112.1 6.13149C112.385 5.92756 112.562 5.62195 112.916 5.01073L113.238 4.45425Z" fill="#E1E1E1"/>
</g>
</svg>
