<svg width="68" height="67" viewBox="0 0 68 67" fill="none" xmlns="http://www.w3.org/2000/svg">
<g id="Ticket">
<path id="Vector" d="M67.0811 34.4745C67.5884 34.4745 68 34.8798 68 35.3799V44.0339C68 46.4595 65.9971 48.4327 63.5352 48.4327H4.46423C2.00241 48.4327 0 46.4595 0 44.0339V35.3798C0 34.8796 0.411586 34.4744 0.91893 34.4744C5.26827 34.4744 8.80627 30.988 8.80627 26.703C8.80627 22.418 5.26814 18.9317 0.91893 18.9317C0.411586 18.9317 0 18.5264 0 18.0263V9.37188C0 6.94627 2.00241 4.97304 4.46423 4.97304H63.5352C65.9971 4.97304 68 6.94627 68 9.37188V18.0263C68 18.5264 67.5884 18.9317 67.0811 18.9317C62.7317 18.9317 59.1937 22.418 59.1937 26.703C59.1937 30.988 62.7317 34.4745 67.0811 34.4745ZM57.3559 26.703C57.3559 21.7247 61.229 17.621 66.1621 17.1632V9.37174C66.1621 7.94472 64.9836 6.78374 63.5352 6.78374H23.1488V11.0076C23.1488 11.5078 22.7372 11.913 22.2299 11.913C21.7225 11.913 21.311 11.5078 21.311 11.0076V6.78387H4.46423C3.01591 6.78387 1.83786 7.94485 1.83786 9.37188V17.1632C6.77105 17.621 10.6441 21.7247 10.6441 26.703C10.6441 31.6813 6.77105 35.7851 1.83786 36.2428V44.0339C1.83786 45.4609 3.01577 46.6219 4.46423 46.6219H21.3111V42.3984C21.3111 41.8983 21.7227 41.493 22.23 41.493C22.7374 41.493 23.149 41.8983 23.149 42.3984V46.6219H63.5354C64.9837 46.6219 66.1623 45.4609 66.1623 44.0339V36.2428C61.229 35.7851 57.3559 31.6813 57.3559 26.703ZM23.1488 29.4614V23.9446C23.1488 23.4445 22.7372 23.0392 22.2299 23.0392C21.7225 23.0392 21.311 23.4445 21.311 23.9446V29.4614C21.311 29.9615 21.7225 30.3668 22.2299 30.3668C22.7372 30.3668 23.1488 29.9615 23.1488 29.4614ZM23.1488 20.2346V14.7174C23.1488 14.2172 22.7372 13.8119 22.2299 13.8119C21.7225 13.8119 21.311 14.2172 21.311 14.7174V20.2346C21.311 20.7348 21.7225 21.1401 22.2299 21.1401C22.7372 21.1401 23.1488 20.7348 23.1488 20.2346ZM23.1488 38.6884V33.1714C23.1488 32.6713 22.7372 32.266 22.2299 32.266C21.7225 32.266 21.311 32.6713 21.311 33.1714V38.6884C21.311 39.1886 21.7225 39.5938 22.2299 39.5938C22.7372 39.5938 23.1488 39.1886 23.1488 38.6884ZM50.3324 37.9075C50.3324 37.4073 49.9208 37.002 49.4134 37.002H33.1792C32.6719 37.002 32.2603 37.4073 32.2603 37.9075C32.2603 38.4076 32.6719 38.8129 33.1792 38.8129H49.4134C49.9208 38.8129 50.3324 38.4076 50.3324 37.9075ZM50.3324 30.4379C50.3324 29.9377 49.9208 29.5325 49.4134 29.5325H33.1792C32.6719 29.5325 32.2603 29.9377 32.2603 30.4379C32.2603 30.938 32.6719 31.3433 33.1792 31.3433H49.4134C49.9208 31.3433 50.3324 30.938 50.3324 30.4379ZM50.3324 22.9683C50.3324 22.4681 49.9208 22.0629 49.4134 22.0629H33.1792C32.6719 22.0629 32.2603 22.4681 32.2603 22.9683C32.2603 23.4684 32.6719 23.8737 33.1792 23.8737H49.4134C49.9208 23.8737 50.3324 23.4684 50.3324 22.9683ZM50.3324 15.4987C50.3324 14.9986 49.9208 14.5933 49.4134 14.5933H33.1792C32.6719 14.5933 32.2603 14.9986 32.2603 15.4987C32.2603 15.9989 32.6719 16.4041 33.1792 16.4041H49.4134C49.9208 16.404 50.3324 15.9989 50.3324 15.4987Z" fill="#1D3274"/>
</g>
</svg>
