<svg width="29" height="29" viewBox="0 0 29 29" fill="none" xmlns="http://www.w3.org/2000/svg">
<g id="Time">
<path id="Vector" d="M14.186 25.2814C11.9767 25.2814 9.81703 24.6263 7.98008 23.3989C6.14312 22.1715 4.71138 20.4269 3.86592 18.3858C3.02046 16.3446 2.79925 14.0987 3.23027 11.9318C3.66128 9.76498 4.72515 7.77461 6.28736 6.2124C7.84956 4.6502 9.83993 3.58633 12.0068 3.15531C14.1736 2.7243 16.4196 2.94551 18.4607 3.79097C20.5018 4.63643 22.2464 6.06817 23.4738 7.90512C24.7012 9.74208 25.3564 11.9018 25.3564 14.111C25.3564 17.0736 24.1795 19.9148 22.0846 22.0097C19.9898 24.1045 17.1486 25.2814 14.186 25.2814ZM14.186 4.80241C12.3449 4.80241 10.5452 5.34835 9.0144 6.3712C7.4836 7.39404 6.29049 8.84785 5.58594 10.5488C4.88139 12.2497 4.69705 14.1214 5.05622 15.9271C5.4154 17.7328 6.30196 19.3914 7.6038 20.6933C8.90563 21.9951 10.5643 22.8817 12.37 23.2408C14.1757 23.6 16.0473 23.4157 17.7483 22.7111C19.4492 22.0066 20.903 20.8135 21.9259 19.2827C22.9487 17.7519 23.4946 15.9521 23.4946 14.111C23.4946 11.6422 22.5139 9.27455 20.7682 7.52885C19.0225 5.78314 16.6548 4.80241 14.186 4.80241Z" fill="#1D3274"/>
<path id="Vector_2" d="M18.8391 19.2308C18.6084 19.2302 18.3861 19.144 18.2154 18.9888L13.5611 14.7999C13.4647 14.7129 13.3875 14.6066 13.3346 14.488C13.2817 14.3694 13.2542 14.241 13.2539 14.1111V9.45674C13.2539 9.20986 13.352 8.97309 13.5266 8.79852C13.7011 8.62395 13.9379 8.52588 14.1848 8.52588C14.4317 8.52588 14.6684 8.62395 14.843 8.79852C15.0176 8.97309 15.1156 9.20986 15.1156 9.45674V13.6922L19.4628 17.6018C19.6051 17.7273 19.7057 17.8933 19.751 18.0776C19.7963 18.2619 19.7843 18.4556 19.7164 18.6328C19.6486 18.81 19.5282 18.9623 19.3714 19.0692C19.2146 19.176 19.0289 19.2325 18.8391 19.2308Z" fill="#1D3274"/>
</g>
</svg>
