<svg width="93" height="92" viewBox="0 0 93 92" fill="none" xmlns="http://www.w3.org/2000/svg">
<g id="Transport">
<path id="Vector" d="M61.1523 34.5781V34.5819L31.8612 34.6049C31.4249 34.6079 30.9941 34.7014 30.5966 34.8793C30.1992 35.0573 29.8438 35.3157 29.5536 35.638C29.015 36.2341 28.7011 36.9548 28.4899 37.6754L25.7116 47.1802L25.1865 46.6569V43.228C25.1865 42.9738 25.0844 42.7301 24.9028 42.5504C24.7211 42.3706 24.4747 42.2697 24.2178 42.2697H20.3428C20.1632 42.2695 19.9871 42.3187 19.8342 42.4118C19.6813 42.5048 19.5575 42.6381 19.4767 42.7968L17.5392 46.6339C17.4656 46.78 17.431 46.9421 17.4385 47.1051C17.4461 47.2681 17.4955 47.4265 17.5823 47.5653C17.669 47.7041 17.7901 47.8186 17.9341 47.8982C18.0782 47.9777 18.2403 48.0195 18.4053 48.0197H23.8244L24.8765 49.0604L19.6879 53.9038C19.5916 53.9941 19.5152 54.1029 19.4632 54.2236C19.4112 54.3442 19.3848 54.4742 19.3856 54.6053V70.4063L19.3895 70.345C19.312 71.5947 20.2168 72.6258 21.3677 72.875C21.3341 72.9758 21.3178 73.0813 21.3193 73.1874V75.3628C21.3193 77.176 22.8111 78.6844 24.6421 78.6825H27.6878C29.5188 78.6825 31.0068 77.176 31.0068 75.3628V72.9363H31.8205C31.9601 72.9587 32.1029 72.9506 32.239 72.9126C32.375 72.8746 32.501 72.8075 32.6081 72.7162C32.7152 72.6249 32.8008 72.5115 32.8589 72.3839C32.9169 72.2564 32.9461 72.1179 32.9443 71.978C32.9411 71.8511 32.9639 71.7249 33.0115 71.607C33.059 71.4891 33.1301 71.382 33.2207 71.292C33.3112 71.2021 33.4193 71.1313 33.5383 71.0838C33.6572 71.0363 33.7847 71.0132 33.913 71.0158H33.9169L59.1005 70.9967C59.6546 70.9967 60.0693 71.4087 60.0693 71.955C60.0678 72.0909 60.0956 72.2256 60.1508 72.3501C60.206 72.4745 60.2873 72.586 60.3894 72.677C60.4915 72.768 60.6119 72.8364 60.7428 72.8779C60.8737 72.9193 61.0119 72.9327 61.1484 72.9172H62.0378C62.0134 73.0045 62.0016 73.0949 62.0029 73.1855V75.3628C62.0029 77.176 63.4909 78.6844 65.3218 78.6825H68.3714C70.2024 78.6825 71.6904 77.1722 71.6904 75.359V72.8386C72.7986 72.5703 73.6143 71.5621 73.6318 70.4025V54.5785C73.6318 54.4492 73.6053 54.3213 73.5541 54.2024C73.5028 54.0835 73.4277 53.976 73.3334 53.8866L68.1641 49.0048L69.1813 47.9967H74.6005C74.7657 47.9967 74.9282 47.9549 75.0724 47.8753C75.2167 47.7956 75.338 47.6808 75.4248 47.5418C75.5116 47.4027 75.561 47.244 75.5683 47.0808C75.5756 46.9175 75.5406 46.7551 75.4666 46.609L73.5291 42.7795C73.4491 42.6198 73.3256 42.4853 73.1727 42.3912C73.0197 42.2971 72.8432 42.247 72.663 42.2467H68.788C68.5311 42.2467 68.2847 42.3476 68.103 42.5274C67.9213 42.7071 67.8193 42.9508 67.8193 43.205V46.6358L67.3039 47.1438L64.5236 37.6505C64.3104 36.9298 64.0024 36.2053 63.4637 35.6093C63.1726 35.2867 62.8162 35.028 62.4178 34.8501C62.0193 34.6721 61.5876 34.5788 61.1504 34.5762L61.1523 34.5781ZM61.1523 36.4986C61.5592 36.4986 61.7665 36.6174 62.0184 36.8953C62.2702 37.1733 62.5008 37.639 62.6616 38.1872L65.6512 48.3877C63.7854 48.7288 56.5817 49.9306 46.5067 49.9306C36.4434 49.9306 29.2436 48.7461 27.3662 48.4068L30.3519 38.2102C30.5127 37.662 30.7491 37.1924 30.999 36.9145C31.2509 36.6366 31.4543 36.5216 31.8612 36.5216H31.8651L61.1523 36.4986ZM69.7548 44.1691H72.0643L73.0331 46.0858H69.7568V44.1691H69.7548ZM20.9414 44.1883H23.249V46.1049H19.9727L20.9414 44.1883ZM66.5773 50.174L71.6923 55.004V70.3776C71.6884 70.7648 71.4404 71.0063 71.1149 71.0063H61.8285C61.6292 70.4468 61.2602 69.9618 60.772 69.6174C60.2838 69.2731 59.7001 69.086 59.1005 69.0819L33.913 69.1011C32.6594 69.1011 31.5919 69.9118 31.1889 71.0216H21.9063C21.5808 71.0216 21.3057 70.7628 21.3231 70.4638C21.3237 70.4447 21.3237 70.4255 21.3231 70.4063V55.0174L26.4846 50.197C27.2984 50.3561 35.2731 51.8511 46.5067 51.8473C57.8314 51.8473 65.874 50.312 66.5773 50.174ZM68.8481 57.5781V57.5819C66.2034 57.4248 63.9443 58.2336 62.4039 59.7976C60.9256 61.3022 60.1758 63.4642 60.1138 65.9233C60.0848 66.0133 60.1041 66.9966 60.1022 67.0924L60.1254 67.125L61.0361 67.1576H68.7861C69.043 67.1576 69.2894 67.0566 69.4711 66.8769C69.6528 66.6972 69.7548 66.4534 69.7548 66.1993V58.5326C69.7543 58.2894 69.6604 58.0554 69.492 57.8782C69.3236 57.7009 69.0934 57.5937 68.8481 57.5781ZM59.1005 57.5819L33.913 57.6011C33.7599 57.6011 33.6089 57.637 33.4725 57.7059C33.3362 57.7748 33.2182 57.8747 33.1284 57.9974C33.0386 58.1201 32.9795 58.2621 32.9559 58.4118C32.9323 58.5614 32.9449 58.7145 32.9927 58.8584L35.5134 66.5059C35.5764 66.6984 35.6993 66.8662 35.8647 66.9854C36.03 67.1045 36.2292 67.1688 36.4337 67.1691H56.5837C56.7882 67.1688 56.9874 67.1045 57.1527 66.9854C57.318 66.8662 57.441 66.6984 57.504 66.5059L60.0228 58.8373C60.0702 58.6934 60.0825 58.5403 60.0586 58.3908C60.0347 58.2412 59.9754 58.0994 59.8854 57.9769C59.7954 57.8544 59.6774 57.7547 59.5409 57.6861C59.4045 57.6174 59.2536 57.5817 59.1005 57.5819ZM24.1674 57.6011C23.9207 57.6158 23.6889 57.7232 23.5196 57.9013C23.3504 58.0795 23.2563 58.3149 23.2567 58.5594V66.2261C23.2567 66.4803 23.3588 66.724 23.5405 66.9037C23.7222 67.0835 23.9686 67.1844 24.2255 67.1844H31.9755C32.2324 67.1844 32.4788 67.0835 32.6605 66.9037C32.8422 66.724 32.9443 66.4803 32.9443 66.2261C32.9443 63.6386 32.1538 61.3827 30.6134 59.8168C29.0731 58.2528 26.8159 57.4458 24.1693 57.6049V57.6011H24.1674ZM57.7675 59.4909L57.1398 61.4076L35.8815 61.4268L35.2479 59.5101L57.7675 59.4909ZM67.8193 59.6117V65.2524H62.1618C62.3381 63.5428 62.8534 62.0976 63.7931 61.1431C64.7386 60.1809 66.1239 59.7018 67.8193 59.6117ZM25.1943 59.6308C26.8915 59.7171 28.2788 60.1963 29.2242 61.1565C30.1659 62.1148 30.6793 63.5619 30.8556 65.2754H25.1943V59.6308ZM56.5081 63.3358L55.8804 65.2563H37.137L36.5093 63.3549L56.5081 63.3358ZM63.9055 72.9268H69.7529V75.3686C69.7586 75.5513 69.7271 75.7333 69.6601 75.9037C69.5932 76.074 69.4923 76.2293 69.3633 76.3603C69.2344 76.4912 69.0801 76.5951 68.9097 76.6658C68.7393 76.7365 68.5562 76.7724 68.3714 76.7716H65.3218C65.137 76.7724 64.954 76.7365 64.7836 76.6658C64.6131 76.5951 64.4589 76.4912 64.3299 76.3603C64.201 76.2293 64.1 76.074 64.0331 75.9037C63.9662 75.7333 63.9347 75.5513 63.9404 75.3686V73.1932C63.9414 73.1032 63.9297 73.0135 63.9055 72.9268ZM23.2258 72.9459H29.0693V75.3705C29.0752 75.5534 29.0439 75.7356 28.9771 75.9062C28.9103 76.0768 28.8094 76.2323 28.6804 76.3635C28.5515 76.4946 28.3971 76.5987 28.2265 76.6695C28.056 76.7403 27.8728 76.7763 27.6878 76.7754H24.6421C24.4569 76.7763 24.2735 76.7403 24.1028 76.6695C23.932 76.5988 23.7774 76.4948 23.6481 76.3637C23.5189 76.2326 23.4176 76.0771 23.3504 75.9065C23.2831 75.7358 23.2513 75.5536 23.2567 75.3705V73.197C23.2576 73.1123 23.2472 73.0279 23.2258 72.9459Z" fill="#1D3274"/>
</g>
</svg>
