<svg width="20" height="20" viewBox="0 0 20 20" fill="none" xmlns="http://www.w3.org/2000/svg">
<g id="world_svgrepo.com" clip-path="url(#clip0_125_308)">
<g id="Shopicon">
<path id="Vector" d="M10.0013 1.6665C5.3988 1.6665 1.66797 5.39734 1.66797 9.99984C1.66797 14.6023 5.3988 18.3332 10.0013 18.3332C14.6038 18.3332 18.3346 14.6023 18.3346 9.99984C18.3346 5.39734 14.6038 1.6665 10.0013 1.6665ZM13.318 9.1665C13.2313 6.98942 12.8084 5.064 12.1821 3.70692C14.5359 4.52525 16.2909 6.62275 16.6101 9.1665H13.318ZM10.0013 16.6248C9.49589 16.2269 8.49797 14.2348 8.3538 10.8332H11.6488C11.5046 14.2348 10.5067 16.2269 10.0013 16.6248ZM8.3538 9.1665C8.49797 5.76484 9.49589 3.77275 10.0013 3.37484C10.5067 3.77275 11.5046 5.76484 11.6488 9.1665H8.3538ZM7.82047 3.70692C7.19464 5.064 6.7713 6.98942 6.68464 9.1665H3.39255C3.71172 6.62317 5.46672 4.52525 7.82047 3.70692ZM6.68464 10.8332C6.7713 13.0103 7.19422 14.9357 7.82047 16.2928C5.46672 15.4744 3.71172 13.3765 3.39255 10.8332H6.68464ZM12.1821 16.2928C12.808 14.9357 13.2313 13.0103 13.318 10.8332H16.6105C16.2909 13.3765 14.5359 15.4744 12.1821 16.2928Z" fill="black"/>
</g>
</g>
<defs>
<clipPath id="clip0_125_308">
<rect width="20" height="20" fill="white"/>
</clipPath>
</defs>
</svg>
